<?xml version="1.0" standalone="no"?>
<!DOCTYPE svg PUBLIC "-//W3C//DTD SVG 20010904//EN"
 "http://www.w3.org/TR/2001/REC-SVG-20010904/DTD/svg10.dtd">
<svg version="1.0" xmlns="http://www.w3.org/2000/svg"
 width="260.000000pt" height="260.000000pt" viewBox="0 0 260.000000 260.000000"
 preserveAspectRatio="xMidYMid meet">
<metadata>
Created by potrace 1.11, written by Peter Selinger 2001-2013
</metadata>
<g transform="translate(0.000000,260.000000) scale(0.100000,-0.100000)"
fill="#000000" stroke="none">
<path d="M0 1300 l0 -1300 1300 0 1300 0 0 1300 0 1300 -1300 0 -1300 0 0
-1300z m1479 859 c150 -69 284 -272 336 -509 26 -120 31 -337 10 -461 -46
-276 -178 -495 -348 -579 -57 -28 -77 -33 -144 -33 -43 0 -91 5 -107 12 -43
17 -26 23 33 10 324 -69 611 389 562 896 -34 351 -192 609 -411 672 -69 19
-92 38 -35 29 22 -4 69 -20 104 -37z m-410 -91 c-98 -94 -157 -200 -204 -362
-76 -265 -50 -577 68 -816 50 -101 54 -111 31 -85 -32 38 -95 186 -122 283
-23 88 -26 114 -26 292 -1 170 2 206 22 283 44 177 133 342 229 427 66 57 67
41 2 -22z m-76 -1688 c-16 -6 -23 -18 -23 -35 0 -17 7 -29 23 -35 l22 -9 -22
0 c-25 -1 -38 28 -29 65 5 17 13 24 29 23 l22 0 -22 -9z m113 -40 c0 -24 -2
-38 -4 -31 -3 10 -6 10 -12 2 -4 -7 -8 9 -8 34 -2 34 1 46 10 43 8 -3 13 -23
14 -48z m94 40 c-13 -9 -13 -11 0 -21 11 -8 12 -12 3 -16 -16 -6 -17 -29 -3
-36 6 -3 5 -4 -2 -3 -14 3 -23 49 -14 72 3 8 11 14 18 14 9 0 9 -3 -2 -10z
m120 -16 c0 -8 -4 -12 -10 -9 -5 3 -10 13 -10 21 0 8 5 12 10 9 6 -3 10 -13
10 -21z m110 22 c0 -11 -19 -15 -25 -6 -3 5 1 10 9 10 9 0 16 -2 16 -4z m77
-58 c-2 -13 -4 -3 -4 22 0 25 2 35 4 23 2 -13 2 -33 0 -45z m84 29 c1 -19 2
-18 14 8 18 38 19 11 1 -30 l-12 -30 -11 43 c-6 23 -7 39 -2 36 5 -3 9 -15 10
-27z m119 23 c-13 -9 -13 -11 0 -21 11 -8 12 -12 3 -16 -7 -2 -13 -11 -13 -18
0 -7 6 -16 13 -18 7 -3 5 -6 -5 -6 -15 -1 -18 8 -18 44 0 36 3 45 18 45 14 0
15 -2 2 -10z m-381 -64 c0 -11 -3 -15 -6 -8 -6 15 -33 16 -33 0 0 -6 -2 -9 -5
-7 -2 3 -2 14 1 26 8 28 44 19 43 -11z"/>
<path d="M1091 364 c0 -11 3 -14 6 -6 3 7 2 16 -1 19 -3 4 -6 -2 -5 -13z"/>
</g>
</svg>
